# xmcd
#
# Track frame offsets:
#	150
#	19589
#	38453
#	55339
#	68178
#	81454
#	96951
#	112753
#	125800
#	141364
#	151477
#	168115
#	183739
#	204039
#	222725
#	231187
#	246222
#	266986
#	284847
#	296421
#	312485
#
# Disc length: 4465 seconds
#
# Revision: 1
# Processed by: cddbd v1.5.2PL0 Copyright (c) Steve Scherf et al.
# Submitted via: audiograbber 1.83.01
#
DISCID=44116f15
DTITLE=Johnny Cash - Heroes and Friends Vol_4
DYEAR=1900
DGENRE=Country
TTITLE0=Johnny Cash Hit-Medley (with Tom Astor)
TTITLE1=Tennessee Stud (with Michael Martin Murphy)
TTITLE2=My ship will sail (with Earl Scruggs)
TTITLE3=I will dance with you 
TTITLE4=Help me make it through the night (with June Carter)
TTITLE5=One more ride (with Marty Stuart)
TTITLE6=Help him Jesus
TTITLE7=Ring of fire (with Sandy Kelly)
TTITLE8=The long black veil (with Razzy Bailey)
TTITLE9=Nasty Dan (with Oskar the Grouch)
TTITLE10=Time of the preacher
TTITLE11=Little Mocking Bird (with Cindy Cash)
TTITLE12=Be carefull who you love (Arthur´s Song) (with Waylon Jennings)
TTITLE13=The Devil comes back to Georgia (with Mark O´Connor, Charlie Daniels, 
TTITLE13=Travis Tritt, Marty Stuart)
TTITLE14=Way Worn Traveler
TTITLE15=The winding stream (with Carlene Carter)
TTITLE16=Life´s railway to Heaven 
TTITLE17=Waiting for a Southern Train (with Jimmy Tittle)
TTITLE18=Gospel Ship (with Joan Baez)
TTITLE19=When He comes (with Joanne Cash Yates)
TTITLE20=The wanderer
EXTD=
EXTT0=
EXTT1=
EXTT2=
EXTT3=
EXTT4=
EXTT5=
EXTT6=
EXTT7=
EXTT8=
EXTT9=
EXTT10=
EXTT11=
EXTT12=
EXTT13=
EXTT14=
EXTT15=
EXTT16=
EXTT17=
EXTT18=
EXTT19=
EXTT20=
PLAYORDER=
